<svg id="svg" version="1.1" width="400" height="188.4765625" viewBox="0 0 400 188.4765625" xmlns="http://www.w3.org/2000/svg" xmlns:xlink="http://www.w3.org/1999/xlink" ><g id="svgg"><path id="path0" d="M39.139 90.716 C 39.018 97.396,38.725 117.258,38.605 126.947 L 38.549 131.461 39.020 131.593 C 39.618 131.760,224.431 131.806,225.265 131.639 L 225.884 131.515 225.768 122.638 C 225.463 99.444,225.235 85.586,225.144 84.684 L 225.044 83.695 132.155 83.695 L 39.266 83.695 39.139 90.716 M308.493 88.980 C 305.147 89.508,304.512 90.729,304.303 97.031 L 304.183 100.660 306.851 100.660 L 309.519 100.660 309.519 97.841 C 309.519 94.198,309.786 93.691,311.706 93.686 C 313.552 93.681,313.855 94.381,313.855 98.646 C 313.855 103.414,313.804 103.487,310.542 103.487 L 308.566 103.487 308.618 105.891 L 308.671 108.294 310.793 108.396 C 313.171 108.510,313.397 108.622,313.676 109.823 C 313.934 110.935,313.879 119.094,313.609 119.882 C 313.199 121.073,311.194 121.467,310.142 120.563 L 309.614 120.109 309.554 115.657 L 309.494 111.205 306.915 111.258 L 304.336 111.310 304.281 114.703 C 304.118 124.902,304.733 125.825,311.687 125.825 C 316.592 125.825,317.898 125.317,318.561 123.155 C 318.682 122.757,318.882 122.228,319.005 121.979 C 319.298 121.382,319.322 109.382,319.031 109.183 C 318.923 109.109,318.713 108.672,318.565 108.212 C 318.212 107.118,317.584 106.393,316.750 106.118 L 316.077 105.895 316.804 105.564 C 317.713 105.150,318.220 104.595,318.785 103.393 C 319.289 102.319,319.485 93.313,319.016 92.725 C 318.901 92.579,318.661 92.017,318.485 91.476 C 317.767 89.276,313.450 88.198,308.493 88.980 M78.888 90.779 C 84.174 91.876,86.887 96.911,87.207 106.221 C 87.625 118.375,83.852 124.440,75.872 124.440 C 68.722 124.440,64.476 118.862,64.468 109.461 C 64.467 108.351,64.236 108.158,64.006 109.075 C 63.316 111.826,59.216 114.221,55.187 114.229 L 53.729 114.232 53.679 119.180 L 53.629 124.128 49.433 124.179 L 45.238 124.230 45.286 107.497 L 45.335 90.763 50.990 90.783 C 60.747 90.816,63.738 92.526,64.880 98.723 L 65.105 99.941 65.429 98.840 C 67.413 92.087,71.989 89.347,78.888 90.779 M149.003 90.695 C 152.847 91.370,156.079 95.782,156.079 100.353 C 156.079 101.295,156.367 100.842,156.694 99.384 C 157.978 93.672,161.702 90.478,167.113 90.447 C 174.228 90.406,177.804 94.794,178.534 104.458 C 179.508 117.360,175.585 124.414,167.425 124.432 C 161.657 124.444,158.237 121.659,156.752 115.740 C 156.369 114.216,156.284 114.033,156.183 114.515 C 154.684 121.643,151.818 124.440,146.014 124.440 C 138.508 124.440,135.350 119.907,135.027 108.671 C 134.629 94.841,139.193 88.971,149.003 90.695 M98.707 90.857 C 101.765 91.180,104.123 92.366,105.561 94.306 L 106.221 95.197 106.315 92.980 L 106.409 90.763 120.405 90.719 L 134.402 90.675 134.402 107.452 L 134.402 124.230 130.113 124.179 L 125.825 124.128 125.776 111.164 L 125.728 98.199 123.043 98.251 L 120.358 98.303 120.310 111.263 L 120.261 124.222 116.021 124.222 L 111.781 124.222 111.781 111.216 L 111.781 98.209 109.497 98.209 L 107.213 98.209 107.329 98.728 C 108.261 102.904,107.115 108.191,104.809 110.348 L 103.859 111.236 105.849 117.117 C 108.096 123.755,108.200 124.065,108.200 124.156 C 108.200 124.492,99.898 124.184,99.715 123.842 C 99.603 123.632,98.785 121.321,97.897 118.705 C 97.009 116.089,96.207 113.869,96.115 113.770 C 96.017 113.665,95.947 115.796,95.947 118.907 L 95.947 124.222 91.800 124.222 L 87.653 124.222 87.653 107.571 C 87.653 98.413,87.710 90.864,87.779 90.795 C 87.972 90.602,96.760 90.652,98.707 90.857 M189.255 90.858 C 197.577 91.558,200.618 95.966,200.633 107.352 C 200.646 117.388,198.242 122.032,192.177 123.686 C 190.786 124.065,190.216 124.098,184.826 124.112 L 178.982 124.128 178.933 107.634 C 178.907 98.563,178.925 91.034,178.975 90.905 C 179.086 90.612,185.962 90.580,189.255 90.858 M218.002 94.439 L 218.002 98.115 213.818 98.166 L 209.634 98.216 209.577 100.680 C 209.545 102.035,209.555 103.178,209.598 103.221 C 209.641 103.264,211.021 103.299,212.665 103.299 L 215.654 103.299 215.603 106.739 L 215.551 110.179 212.582 110.231 L 209.614 110.283 209.613 113.624 L 209.613 116.965 213.902 116.965 L 218.190 116.965 218.242 120.594 L 218.293 124.222 209.618 124.222 L 200.943 124.222 200.943 107.571 C 200.943 98.413,201.000 90.863,201.070 90.793 C 201.140 90.723,204.979 90.687,209.600 90.714 L 218.002 90.763 218.002 94.439 M75.069 98.271 C 72.607 99.638,72.305 114.124,74.690 116.508 C 76.827 118.645,78.324 115.816,78.545 109.223 C 78.820 101.004,77.521 96.909,75.069 98.271 M145.226 98.376 C 143.147 99.643,142.999 114.621,145.045 116.667 C 146.578 118.200,147.709 116.765,148.257 112.594 C 148.400 111.502,148.565 110.562,148.623 110.503 C 148.729 110.398,154.120 110.772,155.273 110.966 L 155.881 111.068 155.881 107.560 L 155.881 104.053 155.085 104.059 C 154.647 104.062,152.974 104.181,151.367 104.324 C 148.045 104.618,148.162 104.641,148.161 103.712 C 148.159 101.245,147.354 98.511,146.539 98.201 C 145.913 97.963,145.899 97.965,145.226 98.376 M166.402 98.308 C 165.138 99.013,164.732 100.830,164.615 106.315 C 164.455 113.836,165.107 116.685,167.061 116.996 C 169.056 117.314,169.910 114.551,169.925 107.729 C 169.941 100.013,168.803 96.970,166.402 98.308 M53.723 102.734 L 53.723 107.307 54.495 107.203 C 56.076 106.991,56.740 105.617,56.738 102.558 C 56.736 99.522,56.201 98.440,54.612 98.260 L 53.723 98.160 53.723 102.734 M95.947 102.475 L 95.947 106.740 96.926 106.646 C 98.673 106.478,99.233 105.264,99.120 101.889 C 99.023 98.991,98.507 98.209,96.692 98.209 L 95.947 98.209 95.947 102.475 M187.559 107.540 L 187.559 116.924 188.632 116.813 C 191.267 116.541,191.936 114.676,191.955 107.540 C 191.973 100.426,191.298 98.542,188.632 98.267 L 187.559 98.156 187.559 107.540 " stroke="none" fill="#e71d23" fill-rule="evenodd"></path><path id="path1" d="M279.736 31.555 L 279.736 43.507 278.652 43.614 C 278.056 43.673,276.762 43.773,275.778 43.837 C 274.321 43.930,272.221 44.243,268.426 44.933 C 268.270 44.961,268.016 45.038,267.861 45.105 C 267.286 45.350,264.582 45.971,264.449 45.889 C 264.373 45.842,264.283 45.873,264.248 45.958 C 264.213 46.042,263.336 46.389,262.300 46.728 C 255.521 48.945,248.982 52.937,244.393 57.663 C 243.116 58.978,240.528 62.284,240.528 62.601 C 240.528 62.686,240.367 62.908,240.171 63.094 C 239.264 63.952,237.177 69.024,236.751 71.404 C 236.618 72.151,236.452 72.762,236.383 72.762 C 236.314 72.762,236.295 73.016,236.341 73.327 C 236.386 73.638,236.345 73.893,236.249 73.893 C 236.152 73.893,236.110 74.396,236.156 75.024 L 236.238 76.155 231.125 76.155 L 226.013 76.155 226.013 78.511 L 226.013 80.867 280.584 80.867 L 335.156 80.867 335.156 78.514 L 335.156 76.162 330.867 76.111 L 326.579 76.060 326.551 75.024 C 326.536 74.453,326.479 73.860,326.425 73.704 C 326.192 73.040,325.891 70.885,326.005 70.701 C 326.074 70.590,326.031 70.500,325.910 70.500 C 325.789 70.500,325.739 70.372,325.799 70.217 C 325.858 70.061,325.842 69.934,325.762 69.934 C 325.682 69.934,325.420 69.319,325.180 68.567 C 323.205 62.375,317.853 56.018,311.027 51.754 C 308.144 49.953,307.749 49.734,305.749 48.829 C 302.929 47.553,301.123 46.864,299.010 46.260 C 298.362 46.075,297.832 45.849,297.832 45.759 C 297.832 45.669,297.767 45.636,297.687 45.685 C 297.543 45.774,295.369 45.338,294.816 45.111 C 294.661 45.046,294.449 44.981,294.345 44.965 C 294.241 44.949,294.029 44.888,293.874 44.829 C 292.924 44.469,287.233 43.773,284.019 43.625 L 281.422 43.505 281.474 41.027 L 281.527 38.549 295.052 38.500 L 308.577 38.452 308.577 29.028 L 308.577 19.604 294.156 19.604 L 279.736 19.604 279.736 31.555 M228.087 85.203 L 228.087 86.523 280.443 86.475 L 332.799 86.428 332.799 85.203 L 332.799 83.977 280.443 83.930 L 228.087 83.882 228.087 85.203 M241.847 91.558 L 241.847 93.484 243.779 93.537 L 245.712 93.591 245.760 109.378 L 245.808 125.165 248.162 125.165 L 250.516 125.165 250.564 109.378 L 250.613 93.591 252.545 93.537 L 254.477 93.484 254.477 91.558 L 254.477 89.632 248.162 89.632 L 241.847 89.632 241.847 91.558 M256.739 107.399 L 256.739 125.165 259.094 125.165 L 261.448 125.165 261.497 115.316 L 261.546 105.467 263.902 105.467 L 266.258 105.467 266.307 115.316 L 266.356 125.165 268.805 125.165 L 271.254 125.165 271.254 107.399 L 271.254 89.632 268.850 89.668 L 266.447 89.703 266.352 95.605 L 266.258 101.508 264.279 101.563 C 263.190 101.593,262.110 101.571,261.878 101.513 L 261.457 101.408 261.407 95.555 L 261.357 89.702 259.048 89.667 L 256.739 89.632 256.739 107.399 M274.835 107.399 L 274.835 125.165 277.286 125.165 L 279.736 125.165 279.736 116.305 L 279.736 107.446 281.516 107.446 C 284.685 107.446,284.618 107.228,284.629 117.578 L 284.637 125.165 287.001 125.165 L 289.364 125.165 289.342 116.969 L 289.319 108.773 288.872 107.846 C 288.406 106.881,287.768 106.309,286.805 105.996 C 286.322 105.839,285.829 105.112,286.272 105.208 C 286.929 105.351,288.228 104.304,288.936 103.060 C 289.346 102.341,289.551 93.761,289.171 93.214 C 289.099 93.110,288.925 92.661,288.785 92.215 C 288.485 91.264,287.607 90.424,286.585 90.109 C 286.188 89.987,285.742 89.848,285.596 89.801 C 285.449 89.753,282.968 89.696,280.082 89.674 L 274.835 89.632 274.835 107.399 M292.680 89.664 C 292.663 89.681,292.671 97.676,292.697 107.430 L 292.747 125.165 297.646 125.165 L 302.545 125.165 302.545 123.191 L 302.545 121.217 300.047 121.165 L 297.549 121.112 297.549 112.064 L 297.549 103.016 299.953 102.963 L 302.356 102.911 302.356 101.037 L 302.356 99.163 299.953 99.110 L 297.549 99.057 297.549 96.324 L 297.549 93.591 300.047 93.538 L 302.545 93.486 302.545 91.559 L 302.545 89.632 297.628 89.632 C 294.924 89.632,292.697 89.647,292.680 89.664 M74.154 90.657 C 69.906 91.331,67.335 93.710,65.848 98.346 C 65.177 100.438,64.844 100.861,64.844 99.622 C 64.844 97.904,63.505 94.985,62.049 93.528 C 60.008 91.487,58.015 91.050,50.754 91.048 L 45.429 91.046 45.429 107.540 L 45.429 124.034 49.482 124.034 L 53.534 124.034 53.534 119.039 L 53.534 114.043 54.862 114.043 C 59.340 114.043,62.577 112.093,64.013 108.530 C 64.500 107.322,64.656 107.403,64.656 108.867 C 64.656 118.966,69.277 124.899,76.693 124.322 C 84.013 123.753,87.400 117.791,87.029 106.126 C 86.675 95.027,82.003 89.413,74.154 90.657 M144.277 90.657 C 137.665 91.709,134.837 97.545,135.228 109.331 C 135.569 119.599,138.887 124.252,145.900 124.294 C 151.421 124.328,154.789 121.107,155.899 114.734 C 156.186 113.089,156.286 113.144,156.787 115.221 C 158.482 122.245,163.905 125.728,170.394 123.959 C 175.957 122.443,178.815 116.132,178.457 106.157 C 178.077 95.575,174.396 90.530,167.107 90.603 C 161.461 90.660,157.314 94.708,156.527 100.932 C 156.405 101.903,156.098 102.757,156.084 102.168 C 155.888 94.082,151.239 89.549,144.277 90.657 M115.975 90.999 L 106.503 91.050 106.503 93.404 C 106.503 95.974,106.401 96.166,105.686 94.947 C 103.813 91.750,101.640 91.053,93.544 91.049 L 87.842 91.046 87.842 107.540 L 87.842 124.034 91.800 124.034 L 95.759 124.034 95.759 118.756 C 95.759 114.444,95.805 113.478,96.014 113.478 C 96.178 113.478,96.935 115.363,98.134 118.756 L 100.000 124.034 104.026 124.034 C 107.784 124.034,108.043 124.012,107.920 123.704 C 107.651 123.030,105.565 117.056,104.600 114.194 L 103.601 111.234 104.653 110.131 C 106.950 107.723,107.816 104.007,107.201 99.199 L 107.050 98.021 109.510 98.021 L 111.970 98.021 111.970 111.027 L 111.970 124.034 116.023 124.034 L 120.075 124.034 120.075 111.027 L 120.075 98.021 122.809 98.021 L 125.542 98.021 125.542 94.439 C 125.542 92.469,125.521 90.878,125.495 90.903 C 125.469 90.928,121.185 90.971,115.975 90.999 M126.107 107.446 L 126.107 124.034 130.160 124.034 L 134.213 124.034 134.213 107.446 L 134.213 90.858 130.160 90.858 L 126.107 90.858 126.107 107.446 M179.265 107.468 L 179.265 124.034 183.702 124.034 C 191.675 124.034,194.343 123.421,196.660 121.055 C 201.942 115.662,201.914 98.723,196.615 93.817 C 194.126 91.513,192.432 91.114,184.590 90.987 L 179.265 90.901 179.265 107.468 M201.131 107.444 L 201.131 124.034 209.614 124.034 L 218.096 124.034 218.096 120.644 L 218.096 117.255 213.713 117.204 L 209.331 117.154 209.279 113.785 C 209.215 109.563,208.938 109.896,212.511 109.896 L 215.363 109.896 215.363 106.696 L 215.363 103.496 212.347 103.444 L 209.331 103.393 209.331 100.754 L 209.331 98.115 213.623 98.064 L 217.916 98.014 217.865 94.483 L 217.813 90.952 209.472 90.903 L 201.131 90.854 201.131 107.444 M283.943 94.289 C 284.528 94.921,284.719 96.560,284.605 99.978 C 284.494 103.301,284.142 103.672,281.103 103.675 L 279.736 103.676 279.736 98.663 L 279.736 93.650 281.603 93.715 C 283.351 93.775,283.501 93.812,283.943 94.289 M77.140 98.342 C 78.917 99.950,79.514 111.284,78.031 115.248 C 76.701 118.803,73.769 117.510,73.165 113.101 C 71.833 103.380,73.964 95.468,77.140 98.342 M147.014 98.318 C 147.721 98.913,148.122 100.164,148.285 102.288 C 148.350 103.138,148.467 103.936,148.544 104.061 C 148.677 104.277,152.746 104.084,155.278 103.741 L 156.079 103.633 156.079 107.424 L 156.079 111.216 155.372 111.210 C 154.984 111.207,153.478 111.082,152.026 110.931 C 150.575 110.781,149.257 110.656,149.097 110.654 C 148.869 110.651,148.742 111.128,148.501 112.896 C 147.905 117.266,146.016 118.838,144.490 116.235 C 143.141 113.933,142.911 102.579,144.150 99.482 C 144.758 97.962,145.994 97.460,147.014 98.318 M168.746 98.587 C 170.959 100.977,170.757 114.865,168.481 116.780 C 167.477 117.625,166.083 117.254,165.348 115.945 C 164.017 113.575,163.826 102.726,165.063 99.720 C 165.832 97.851,167.570 97.317,168.746 98.587 M55.634 98.317 C 56.600 98.816,56.996 100.006,57.010 102.451 C 57.029 105.789,56.427 107.054,54.679 107.349 C 53.508 107.547,53.534 107.657,53.534 102.628 L 53.534 98.021 54.298 98.021 C 54.718 98.021,55.319 98.154,55.634 98.317 M98.489 98.640 C 99.296 99.447,99.618 100.912,99.466 103.082 C 99.277 105.785,98.455 106.880,96.616 106.880 L 95.759 106.880 95.759 102.451 L 95.759 98.021 96.814 98.021 C 97.756 98.021,97.937 98.087,98.489 98.640 M190.372 98.576 C 191.887 99.655,192.394 102.553,192.205 109.048 C 192.021 115.351,191.196 117.059,188.332 117.059 L 187.370 117.059 187.370 107.518 L 187.370 97.977 188.557 98.052 C 189.417 98.107,189.915 98.251,190.372 98.576 M228.841 129.595 L 228.841 130.820 281.244 130.820 L 333.648 130.820 333.648 129.595 L 333.648 128.369 281.244 128.369 L 228.841 128.369 228.841 129.595 M225.825 136.381 L 225.825 138.737 223.751 138.737 L 221.678 138.737 221.678 140.999 L 221.678 143.261 220.547 143.261 L 219.416 143.261 219.416 145.806 L 219.416 148.351 280.490 148.351 L 341.565 148.351 341.565 145.806 L 341.565 143.261 340.434 143.261 L 339.303 143.261 339.303 140.999 L 339.303 138.737 337.229 138.737 L 335.156 138.737 335.156 136.381 L 335.156 134.025 280.490 134.025 L 225.825 134.025 225.825 136.381 " stroke="none" fill="#fbfbfb" fill-rule="evenodd"></path><path id="path2" d="M125.809 94.439 C 125.809 96.461,125.837 97.288,125.871 96.277 C 125.905 95.266,125.905 93.612,125.871 92.601 C 125.837 91.590,125.809 92.418,125.809 94.439 M211.546 98.161 C 212.660 98.195,214.484 98.195,215.598 98.161 C 216.713 98.128,215.801 98.101,213.572 98.101 C 211.343 98.101,210.431 98.128,211.546 98.161 M78.675 107.446 C 78.675 108.534,78.706 108.980,78.744 108.435 C 78.782 107.891,78.782 107.000,78.744 106.456 C 78.706 105.912,78.675 106.357,78.675 107.446 M178.569 107.540 C 178.570 108.162,178.605 108.394,178.647 108.055 C 178.689 107.716,178.689 107.207,178.646 106.924 C 178.603 106.641,178.568 106.918,178.569 107.540 M87.131 109.331 C 87.131 109.694,87.170 109.842,87.218 109.661 C 87.265 109.479,87.265 109.182,87.218 109.001 C 87.170 108.820,87.131 108.968,87.131 109.331 M143.497 109.802 C 143.499 110.217,143.538 110.364,143.583 110.130 C 143.628 109.895,143.626 109.556,143.579 109.376 C 143.532 109.196,143.495 109.387,143.497 109.802 M104.889 110.132 L 104.336 110.745 104.948 110.191 C 105.285 109.886,105.561 109.611,105.561 109.578 C 105.561 109.433,105.405 109.561,104.889 110.132 M210.980 110.225 C 211.784 110.260,213.098 110.260,213.902 110.225 C 214.705 110.190,214.048 110.161,212.441 110.161 C 210.834 110.161,210.177 110.190,210.980 110.225 M104.053 124.034 L 100.000 124.140 103.995 124.181 C 106.500 124.207,108.032 124.152,108.106 124.034 C 108.170 123.930,108.196 123.864,108.164 123.887 C 108.132 123.910,106.282 123.976,104.053 124.034 M47.361 124.175 C 48.475 124.208,50.299 124.208,51.414 124.175 C 52.528 124.141,51.616 124.114,49.387 124.114 C 47.158 124.114,46.246 124.141,47.361 124.175 M89.784 124.175 C 90.904 124.208,92.686 124.208,93.743 124.174 C 94.800 124.141,93.883 124.114,91.706 124.114 C 89.529 124.114,88.664 124.141,89.784 124.175 M113.892 124.174 C 115.000 124.208,116.866 124.208,118.039 124.175 C 119.211 124.142,118.303 124.114,116.023 124.114 C 113.742 124.114,112.783 124.141,113.892 124.174 M128.029 124.174 C 129.138 124.208,131.004 124.208,132.176 124.175 C 133.348 124.142,132.441 124.114,130.160 124.114 C 127.879 124.114,126.920 124.141,128.029 124.174 M181.187 124.174 C 182.295 124.208,184.161 124.208,185.334 124.175 C 186.506 124.142,185.598 124.114,183.318 124.114 C 181.037 124.114,180.078 124.141,181.187 124.174 M205.527 124.175 C 207.892 124.205,211.709 124.205,214.009 124.175 C 216.309 124.145,214.373 124.121,209.708 124.121 C 205.042 124.121,203.161 124.145,205.527 124.175 " stroke="none" fill="#f2777c" fill-rule="evenodd"></path><path id="path3" d="M279.485 19.353 C 279.416 19.422,279.359 24.846,279.359 31.407 L 279.359 43.335 278.464 43.405 L 277.568 43.476 278.557 43.510 L 279.545 43.544 279.593 31.527 L 279.642 19.510 294.156 19.414 L 308.671 19.318 294.141 19.273 C 286.149 19.248,279.554 19.284,279.485 19.353 M281.474 41.140 L 281.527 43.450 283.318 43.462 L 285.108 43.474 283.459 43.407 L 281.810 43.341 281.810 41.086 C 281.810 39.664,281.738 38.831,281.615 38.831 C 281.490 38.831,281.440 39.646,281.474 41.140 M275.636 43.679 C 275.921 43.722,276.388 43.722,276.673 43.679 C 276.958 43.636,276.725 43.600,276.155 43.600 C 275.584 43.600,275.351 43.636,275.636 43.679 M286.192 43.679 C 286.477 43.722,286.944 43.722,287.229 43.679 C 287.514 43.636,287.281 43.600,286.711 43.600 C 286.140 43.600,285.907 43.636,286.192 43.679 M273.940 43.862 C 274.121 43.910,274.418 43.910,274.599 43.862 C 274.781 43.815,274.632 43.776,274.270 43.776 C 273.907 43.776,273.758 43.815,273.940 43.862 M269.840 44.388 C 268.326 44.707,269.112 44.718,270.782 44.402 C 271.508 44.264,271.847 44.151,271.536 44.151 C 271.225 44.151,270.462 44.258,269.840 44.388 M291.517 44.309 C 292.472 44.506,293.244 44.497,292.460 44.298 C 292.149 44.219,291.640 44.154,291.329 44.153 C 290.853 44.153,290.883 44.178,291.517 44.309 M266.635 45.061 C 266.372 45.180,266.487 45.197,267.012 45.117 C 267.427 45.053,267.802 44.971,267.845 44.933 C 268.007 44.790,266.997 44.897,266.635 45.061 M296.136 45.240 C 296.780 45.447,297.276 45.447,296.795 45.240 C 296.588 45.151,296.249 45.081,296.041 45.084 C 295.738 45.088,295.757 45.119,296.136 45.240 M298.869 45.994 C 299.387 46.186,299.981 46.343,300.189 46.344 C 300.396 46.345,300.099 46.188,299.529 45.994 C 298.188 45.539,297.635 45.539,298.869 45.994 M262.959 46.089 C 262.597 46.228,262.427 46.343,262.582 46.343 C 262.738 46.343,263.162 46.228,263.525 46.089 C 263.888 45.949,264.057 45.835,263.902 45.835 C 263.746 45.835,263.322 45.949,262.959 46.089 M261.640 46.506 C 261.484 46.564,260.912 46.776,260.368 46.976 C 259.823 47.177,259.378 47.420,259.378 47.517 C 259.378 47.626,259.504 47.627,259.708 47.520 C 259.889 47.424,260.335 47.226,260.697 47.079 C 261.876 46.602,262.303 46.397,262.111 46.399 C 262.008 46.400,261.795 46.448,261.640 46.506 M301.602 46.892 C 301.965 47.057,302.326 47.178,302.403 47.159 C 302.481 47.141,302.545 47.210,302.545 47.314 C 302.545 47.418,302.630 47.502,302.733 47.502 C 303.231 47.502,302.828 47.129,302.040 46.860 C 300.935 46.484,300.739 46.498,301.602 46.892 M303.110 47.482 C 303.110 47.597,303.174 47.675,303.252 47.657 C 303.329 47.638,304.149 47.978,305.072 48.412 C 305.996 48.847,306.780 49.173,306.815 49.138 C 306.850 49.103,306.455 48.876,305.937 48.633 C 305.419 48.390,304.995 48.139,304.995 48.074 C 304.995 48.008,304.677 47.841,304.288 47.702 C 303.900 47.563,303.475 47.410,303.346 47.361 C 303.216 47.313,303.110 47.367,303.110 47.482 M258.471 47.701 C 258.231 47.797,257.892 48.020,257.717 48.197 C 257.418 48.499,257.422 48.509,257.776 48.366 C 257.983 48.282,258.301 48.171,258.483 48.119 C 258.664 48.067,258.812 47.944,258.812 47.846 C 258.812 47.749,258.897 47.721,259.001 47.785 C 259.105 47.849,259.189 47.812,259.189 47.702 C 259.189 47.466,259.057 47.466,258.471 47.701 M256.173 48.916 C 255.914 49.064,255.787 49.186,255.891 49.186 C 255.994 49.186,256.291 49.064,256.550 48.916 C 256.810 48.768,256.937 48.647,256.833 48.647 C 256.730 48.647,256.433 48.768,256.173 48.916 M307.069 49.288 C 307.069 49.334,307.684 49.679,308.435 50.054 C 309.187 50.430,309.883 50.815,309.981 50.910 C 310.080 51.006,310.248 51.084,310.355 51.084 C 310.680 51.084,309.178 50.136,308.090 49.655 C 307.529 49.407,307.069 49.242,307.069 49.288 M254.618 49.684 C 253.914 50.066,253.956 50.225,254.665 49.859 C 254.976 49.698,255.231 49.526,255.231 49.477 C 255.231 49.355,255.211 49.362,254.618 49.684 M252.815 50.633 C 252.367 50.901,252.040 51.160,252.089 51.209 C 252.137 51.257,252.588 51.039,253.091 50.723 C 254.202 50.025,253.959 49.947,252.815 50.633 M250.848 51.862 C 250.356 52.184,249.953 52.529,249.953 52.629 C 249.953 52.728,250.186 52.629,250.471 52.410 C 250.756 52.190,251.202 51.847,251.461 51.648 C 252.184 51.091,251.847 51.209,250.848 51.862 M249.057 53.168 C 248.721 53.484,248.445 53.783,248.445 53.832 C 248.445 54.006,249.558 53.098,249.655 52.846 C 249.789 52.496,249.754 52.515,249.057 53.168 M312.912 52.721 C 312.912 52.901,315.218 54.665,315.454 54.665 C 315.527 54.665,315.090 54.269,314.485 53.785 C 312.901 52.518,312.912 52.526,312.912 52.721 M247.665 54.299 C 247.243 54.666,247.241 54.676,247.633 54.487 C 247.861 54.376,248.099 54.202,248.163 54.099 C 248.348 53.799,248.145 53.881,247.665 54.299 M244.678 56.949 C 243.525 58.102,242.639 59.099,242.707 59.164 C 242.776 59.230,243.098 58.953,243.424 58.549 C 244.222 57.557,245.349 56.410,246.358 55.558 C 246.817 55.171,247.099 54.854,246.983 54.854 C 246.868 54.854,245.831 55.797,244.678 56.949 M315.740 54.913 C 315.740 54.945,316.016 55.221,316.352 55.526 L 316.965 56.079 316.411 55.467 C 315.895 54.895,315.740 54.767,315.740 54.913 M317.059 55.993 C 317.059 56.043,317.653 56.712,318.379 57.480 C 319.105 58.247,319.698 58.936,319.698 59.012 C 319.698 59.087,319.828 59.199,319.986 59.259 C 320.211 59.346,320.233 59.300,320.088 59.044 C 319.889 58.692,317.059 55.842,317.059 55.993 M241.621 60.368 C 240.787 61.398,240.648 61.640,240.894 61.640 C 241.003 61.640,241.093 61.520,241.093 61.373 C 241.093 61.226,241.157 61.076,241.235 61.040 C 241.545 60.897,242.662 59.566,242.473 59.566 C 242.361 59.566,241.978 59.927,241.621 60.368 M322.138 62.064 C 322.360 62.401,322.836 63.249,323.196 63.949 C 323.903 65.325,324.190 65.641,323.728 64.536 C 323.410 63.775,321.981 61.451,321.831 61.451 C 321.778 61.451,321.916 61.727,322.138 62.064 M239.897 62.833 C 239.543 63.386,239.196 64.043,239.126 64.294 C 239.055 64.545,239.239 64.326,239.535 63.808 C 239.831 63.289,240.228 62.632,240.416 62.347 C 240.605 62.062,240.710 61.828,240.650 61.828 C 240.589 61.828,240.250 62.281,239.897 62.833 M238.353 65.800 C 238.189 66.118,238.081 66.453,238.113 66.545 C 238.145 66.637,238.314 66.377,238.487 65.967 C 238.862 65.083,238.778 64.979,238.353 65.800 M324.222 65.872 C 324.222 66.113,324.681 66.918,324.818 66.918 C 325.026 66.918,325.018 66.840,324.758 66.267 C 324.572 65.859,324.222 65.601,324.222 65.872 M237.258 68.088 C 237.157 68.477,237.236 68.775,237.394 68.599 C 237.586 68.386,237.703 67.672,237.546 67.672 C 237.448 67.672,237.318 67.859,237.258 68.088 M325.318 68.147 C 325.254 68.211,325.320 68.491,325.465 68.769 C 325.610 69.047,325.735 69.402,325.744 69.557 C 325.753 69.713,325.797 69.751,325.843 69.642 C 325.953 69.378,325.468 67.997,325.318 68.147 M236.500 70.547 C 236.437 70.780,236.385 71.094,236.383 71.244 C 236.379 71.659,236.690 71.241,236.831 70.641 C 236.977 70.023,236.664 69.934,236.500 70.547 M326.329 71.725 C 326.323 71.932,326.388 72.441,326.474 72.856 C 326.605 73.490,326.629 73.520,326.629 73.044 C 326.628 72.384,326.347 71.145,326.329 71.725 M326.724 74.458 C 326.724 74.925,326.761 75.115,326.806 74.882 C 326.851 74.649,326.851 74.267,326.806 74.034 C 326.761 73.801,326.724 73.992,326.724 74.458 M235.848 74.973 L 235.815 75.960 230.679 76.013 L 225.542 76.067 230.685 76.111 C 236.410 76.160,236.082 76.241,235.954 74.810 C 235.882 73.994,235.881 73.995,235.848 74.973 M331.097 76.106 L 335.332 76.162 335.394 78.373 L 335.456 80.584 335.447 78.322 L 335.438 76.060 331.150 76.055 L 326.861 76.049 331.097 76.106 M225.636 81.056 C 225.636 81.181,244.043 81.244,280.479 81.244 C 316.838 81.244,335.361 81.181,335.438 81.056 C 335.516 80.930,317.187 80.867,280.595 80.867 C 244.082 80.867,225.636 80.930,225.636 81.056 M227.978 83.759 C 227.924 83.899,227.906 84.641,227.936 85.409 L 227.992 86.805 280.490 86.805 L 332.988 86.805 333.042 85.156 L 333.097 83.506 280.586 83.506 C 236.800 83.506,228.059 83.548,227.978 83.759 M332.893 85.108 L 332.893 86.522 280.490 86.522 L 228.087 86.522 228.087 85.108 L 228.087 83.695 280.490 83.695 L 332.893 83.695 332.893 85.108 M261.684 95.240 L 261.640 101.225 263.949 101.185 L 266.258 101.144 264.046 101.085 L 261.834 101.025 261.781 95.140 L 261.729 89.255 261.684 95.240 M271.348 107.304 L 271.348 125.259 268.756 125.259 C 267.330 125.259,266.164 125.323,266.164 125.401 C 266.164 125.478,267.394 125.542,268.897 125.542 L 271.631 125.542 271.631 107.446 C 271.631 97.493,271.567 89.350,271.489 89.350 C 271.411 89.350,271.348 97.429,271.348 107.304 M274.458 107.446 L 274.458 125.542 277.191 125.542 L 279.925 125.542 279.925 116.664 L 279.925 107.786 281.706 107.852 C 284.195 107.943,283.961 107.048,284.078 116.927 C 284.134 121.613,284.197 125.471,284.220 125.500 C 284.242 125.529,285.469 125.529,286.946 125.500 L 289.632 125.448 289.637 117.625 L 289.641 109.802 289.542 117.531 L 289.444 125.259 287.276 125.314 C 286.084 125.344,284.920 125.322,284.690 125.265 L 284.271 125.161 284.219 116.780 L 284.166 108.398 283.737 107.969 C 283.363 107.595,283.080 107.532,281.522 107.475 L 279.736 107.409 279.736 116.387 L 279.736 125.364 277.238 125.312 L 274.741 125.259 274.741 107.304 C 274.741 97.429,274.677 89.350,274.599 89.350 C 274.522 89.350,274.458 97.493,274.458 107.446 M284.307 89.480 C 284.489 89.527,284.786 89.527,284.967 89.480 C 285.148 89.432,285.000 89.393,284.637 89.393 C 284.274 89.393,284.126 89.432,284.307 89.480 M292.411 107.402 L 292.366 125.548 297.597 125.498 L 302.828 125.448 302.880 123.139 C 302.915 121.645,302.865 120.829,302.739 120.829 C 302.616 120.829,302.545 121.665,302.545 123.095 L 302.545 125.360 297.597 125.309 L 292.648 125.259 292.553 107.257 L 292.457 89.255 292.411 107.402 M302.545 91.512 L 302.545 93.674 300.047 93.736 L 297.549 93.797 300.189 93.788 L 302.828 93.779 302.881 91.565 C 302.915 90.134,302.865 89.350,302.739 89.350 C 302.617 89.350,302.545 90.152,302.545 91.512 M286.568 89.845 C 287.688 90.237,288.656 91.162,289.049 92.215 C 289.252 92.759,289.316 92.839,289.243 92.460 C 288.984 91.109,287.706 89.829,286.428 89.642 L 285.674 89.531 286.568 89.845 M254.733 91.612 C 254.733 92.597,254.765 93.000,254.804 92.507 C 254.843 92.015,254.843 91.209,254.804 90.716 C 254.765 90.224,254.733 90.627,254.733 91.612 M39.064 91.423 C 39.064 91.786,39.102 91.934,39.150 91.753 C 39.197 91.572,39.197 91.275,39.150 91.093 C 39.102 90.912,39.064 91.060,39.064 91.423 M241.470 93.665 C 241.470 93.804,242.128 93.874,243.450 93.874 L 245.429 93.874 245.429 109.708 L 245.429 125.542 248.162 125.542 L 250.895 125.542 250.895 109.708 L 250.895 93.874 252.875 93.874 C 254.196 93.874,254.854 93.804,254.854 93.665 C 254.854 93.550,254.720 93.508,254.556 93.571 C 254.392 93.634,253.459 93.685,252.483 93.685 L 250.709 93.685 250.661 109.472 L 250.613 125.259 248.162 125.259 L 245.712 125.259 245.663 109.472 L 245.615 93.685 243.841 93.685 C 242.865 93.685,241.932 93.634,241.768 93.571 C 241.604 93.508,241.470 93.550,241.470 93.665 M279.780 98.728 L 279.824 103.582 279.877 98.803 L 279.931 94.025 281.641 94.091 C 284.129 94.186,284.072 94.076,284.072 98.754 C 284.072 101.810,284.019 102.543,283.774 102.927 L 283.476 103.393 283.868 102.948 C 284.261 102.502,284.480 96.126,284.145 94.876 C 283.968 94.218,282.979 93.874,281.263 93.874 L 279.736 93.874 279.780 98.728 M289.615 98.303 C 289.615 100.066,289.643 100.812,289.678 99.962 C 289.713 99.112,289.713 97.670,289.679 96.758 C 289.644 95.845,289.616 96.541,289.615 98.303 M300.047 98.916 L 302.356 98.975 302.356 100.948 L 302.356 102.922 300.105 102.922 C 298.808 102.922,297.805 103.002,297.738 103.110 C 297.663 103.232,298.490 103.299,300.083 103.299 L 302.545 103.299 302.545 101.037 L 302.545 98.775 300.141 98.815 L 297.738 98.856 300.047 98.916 M289.161 102.941 C 289.161 103.477,288.222 104.577,287.427 104.971 C 286.981 105.191,286.727 105.372,286.861 105.372 C 287.822 105.373,289.771 103.280,289.273 102.782 C 289.211 102.721,289.161 102.792,289.161 102.941 M286.239 105.515 C 286.343 105.617,286.682 105.755,286.993 105.822 C 287.642 105.961,287.283 105.691,286.522 105.468 C 286.213 105.377,286.116 105.393,286.239 105.515 M261.595 115.410 L 261.546 125.259 258.954 125.259 C 257.528 125.259,256.362 125.325,256.362 125.406 C 256.362 125.486,257.571 125.529,259.048 125.500 L 261.734 125.448 261.783 115.604 L 261.832 105.761 264.045 105.702 L 266.258 105.642 263.951 105.601 L 261.643 105.561 261.595 115.410 M288.147 106.527 C 288.470 106.877,288.828 107.333,288.942 107.540 C 289.105 107.836,289.151 107.851,289.155 107.613 C 289.163 107.222,288.497 106.374,287.968 106.101 C 287.650 105.937,287.689 106.032,288.147 106.527 M225.495 107.163 C 225.497 107.578,225.536 107.725,225.581 107.491 C 225.626 107.256,225.624 106.917,225.577 106.737 C 225.530 106.557,225.493 106.748,225.495 107.163 M38.703 115.363 C 38.703 116.037,38.737 116.312,38.779 115.975 C 38.821 115.639,38.821 115.087,38.779 114.750 C 38.737 114.413,38.703 114.689,38.703 115.363 M38.498 128.369 C 38.498 128.732,38.537 128.881,38.584 128.699 C 38.632 128.518,38.632 128.221,38.584 128.040 C 38.537 127.858,38.498 128.007,38.498 128.369 M228.841 128.181 C 228.841 128.306,246.370 128.369,281.236 128.369 L 333.632 128.369 333.700 129.830 L 333.769 131.291 333.755 129.689 L 333.742 128.087 281.291 128.039 C 246.356 128.008,228.841 128.055,228.841 128.181 M225.574 133.773 C 225.504 133.842,225.448 134.900,225.448 136.123 L 225.448 138.347 223.516 138.401 L 221.583 138.454 221.530 140.669 L 221.477 142.884 220.258 142.884 L 219.039 142.884 219.078 145.664 L 219.117 148.445 219.219 145.806 L 219.321 143.167 220.500 143.111 L 221.678 143.055 221.678 140.808 L 221.678 138.561 223.704 138.508 L 225.730 138.454 225.760 136.287 L 225.789 134.119 280.560 134.071 L 335.331 134.024 335.395 136.051 L 335.459 138.077 335.449 135.910 L 335.438 133.742 280.569 133.694 C 250.391 133.668,225.643 133.704,225.574 133.773 M337.229 138.538 L 339.208 138.643 339.261 140.849 L 339.314 143.055 340.487 143.111 L 341.659 143.167 341.761 145.806 L 341.864 148.445 341.903 145.664 L 341.942 142.884 340.716 142.884 L 339.491 142.884 339.491 140.622 L 339.491 138.360 337.370 138.397 L 335.250 138.434 337.229 138.538 " stroke="none" fill="#929292" fill-rule="evenodd"></path><path id="path4" d="M106.388 93.214 C 106.388 94.562,106.418 95.088,106.455 94.384 C 106.491 93.680,106.491 92.577,106.454 91.934 C 106.417 91.290,106.388 91.866,106.388 93.214 M201.033 107.446 C 201.033 116.621,201.056 120.375,201.084 115.787 C 201.112 111.199,201.112 103.692,201.084 99.105 C 201.056 94.517,201.033 98.270,201.033 107.446 M95.843 98.261 C 95.793 98.393,95.774 100.365,95.802 102.643 L 95.853 106.786 96.561 106.806 L 97.270 106.826 96.602 106.747 L 95.934 106.668 95.988 102.344 C 96.040 98.101,96.029 97.777,95.843 98.261 M96.560 98.151 C 96.741 98.198,97.038 98.198,97.220 98.151 C 97.401 98.103,97.253 98.064,96.890 98.064 C 96.527 98.064,96.378 98.103,96.560 98.151 M107.192 98.162 C 107.143 98.240,107.796 98.281,108.641 98.253 C 111.284 98.165,111.583 98.085,109.389 98.052 C 108.229 98.035,107.240 98.084,107.192 98.162 M111.781 111.084 L 111.876 124.128 111.924 111.227 C 111.951 104.131,111.908 98.261,111.830 98.182 C 111.751 98.104,111.729 103.909,111.781 111.084 M121.536 98.161 C 122.288 98.196,123.518 98.196,124.270 98.161 C 125.021 98.125,124.406 98.096,122.903 98.096 C 121.400 98.096,120.785 98.125,121.536 98.161 M72.994 104.618 C 72.994 104.981,73.033 105.130,73.080 104.948 C 73.127 104.767,73.127 104.470,73.080 104.288 C 73.033 104.107,72.994 104.255,72.994 104.618 M78.649 104.995 C 78.649 105.358,78.688 105.507,78.735 105.325 C 78.782 105.144,78.782 104.847,78.735 104.665 C 78.688 104.484,78.649 104.632,78.649 104.995 M135.018 105.749 C 135.018 106.216,135.055 106.407,135.100 106.173 C 135.145 105.940,135.145 105.558,135.100 105.325 C 135.055 105.092,135.018 105.283,135.018 105.749 M170.096 107.446 C 170.096 108.431,170.128 108.834,170.167 108.341 C 170.206 107.849,170.206 107.043,170.167 106.550 C 170.128 106.058,170.096 106.461,170.096 107.446 M87.152 107.352 C 87.153 108.181,87.186 108.497,87.226 108.053 C 87.266 107.610,87.265 106.931,87.225 106.545 C 87.184 106.159,87.152 106.522,87.152 107.352 M135.015 109.237 C 135.017 109.651,135.055 109.799,135.100 109.564 C 135.145 109.330,135.144 108.990,135.097 108.810 C 135.049 108.630,135.012 108.822,135.015 109.237 M78.649 109.896 C 78.649 110.259,78.688 110.408,78.735 110.226 C 78.782 110.045,78.782 109.748,78.735 109.566 C 78.688 109.385,78.649 109.533,78.649 109.896 M72.994 110.273 C 72.994 110.636,73.033 110.785,73.080 110.603 C 73.127 110.422,73.127 110.125,73.080 109.943 C 73.033 109.762,72.994 109.910,72.994 110.273 M95.842 118.850 C 95.842 121.753,95.868 122.914,95.900 121.431 C 95.932 119.947,95.932 117.572,95.900 116.153 C 95.868 114.733,95.841 115.947,95.842 118.850 " stroke="none" fill="#ed9fa2" fill-rule="evenodd"></path><path id="path5" d="M47.749 90.810 C 49.077 90.843,51.197 90.842,52.461 90.810 C 53.725 90.777,52.639 90.751,50.047 90.751 C 47.455 90.751,46.421 90.778,47.749 90.810 M90.245 90.810 C 91.619 90.842,93.867 90.842,95.240 90.810 C 96.614 90.778,95.490 90.752,92.743 90.752 C 89.995 90.752,88.871 90.778,90.245 90.810 M111.276 90.810 C 113.953 90.840,118.279 90.840,120.890 90.810 C 123.500 90.781,121.310 90.757,116.023 90.757 C 110.735 90.757,108.599 90.781,111.276 90.810 M128.050 90.810 C 129.274 90.843,131.225 90.843,132.386 90.810 C 133.546 90.777,132.545 90.750,130.160 90.750 C 127.776 90.750,126.826 90.777,128.050 90.810 M179.014 90.795 C 178.839 90.969,178.855 123.991,179.029 124.099 C 179.107 124.147,179.148 116.689,179.121 107.525 L 179.072 90.865 183.551 90.810 L 188.030 90.756 183.585 90.713 C 181.140 90.689,179.083 90.726,179.014 90.795 M209.515 90.810 L 217.900 90.862 217.957 94.394 L 218.014 97.926 218.008 94.345 L 218.002 90.763 209.566 90.760 L 201.131 90.758 209.515 90.810 M125.686 110.973 C 125.713 118.097,125.798 123.988,125.874 124.065 C 125.951 124.141,125.991 118.313,125.964 111.112 C 125.936 103.912,125.851 98.021,125.775 98.021 C 125.699 98.021,125.659 103.849,125.686 110.973 M53.616 102.639 C 53.616 105.127,53.643 106.119,53.675 104.843 C 53.708 103.567,53.708 101.531,53.675 100.319 C 53.642 99.107,53.616 100.151,53.616 102.639 M209.498 100.566 C 209.499 101.913,209.529 102.440,209.565 101.736 C 209.601 101.032,209.601 99.929,209.564 99.285 C 209.528 98.642,209.498 99.218,209.498 100.566 M107.493 100.943 C 107.495 101.357,107.534 101.505,107.579 101.270 C 107.624 101.036,107.623 100.696,107.575 100.516 C 107.528 100.336,107.491 100.528,107.493 100.943 M56.802 102.545 C 56.802 103.322,56.836 103.640,56.876 103.252 C 56.917 102.863,56.917 102.227,56.876 101.838 C 56.836 101.449,56.802 101.767,56.802 102.545 M99.212 102.356 C 99.212 103.030,99.246 103.306,99.288 102.969 C 99.330 102.632,99.330 102.081,99.288 101.744 C 99.246 101.407,99.212 101.682,99.212 102.356 M107.493 103.205 C 107.495 103.619,107.534 103.767,107.579 103.532 C 107.624 103.298,107.623 102.958,107.575 102.778 C 107.528 102.598,107.491 102.790,107.493 103.205 M78.460 103.676 C 78.460 104.039,78.499 104.187,78.547 104.006 C 78.594 103.824,78.594 103.527,78.547 103.346 C 78.499 103.164,78.460 103.313,78.460 103.676 M169.891 104.053 C 169.891 104.519,169.928 104.710,169.973 104.477 C 170.018 104.244,170.018 103.862,169.973 103.629 C 169.928 103.395,169.891 103.586,169.891 104.053 M215.457 106.730 C 215.405 108.669,215.429 110.190,215.509 110.109 C 215.589 110.029,215.631 108.442,215.603 106.584 L 215.550 103.205 215.457 106.730 M191.953 104.713 C 191.954 105.335,191.989 105.566,192.031 105.228 C 192.073 104.889,192.072 104.380,192.029 104.097 C 191.986 103.813,191.952 104.090,191.953 104.713 M152.733 104.183 C 152.915 104.230,153.212 104.230,153.393 104.183 C 153.574 104.135,153.426 104.097,153.063 104.097 C 152.700 104.097,152.552 104.135,152.733 104.183 M150.283 104.371 C 150.464 104.419,150.761 104.419,150.943 104.371 C 151.124 104.324,150.975 104.285,150.613 104.285 C 150.250 104.285,150.101 104.324,150.283 104.371 M164.450 107.352 C 164.450 109.114,164.478 109.860,164.513 109.010 C 164.548 108.160,164.548 106.718,164.514 105.806 C 164.479 104.893,164.451 105.589,164.450 107.352 M178.558 105.844 C 178.560 106.258,178.599 106.406,178.644 106.171 C 178.689 105.937,178.688 105.597,178.640 105.417 C 178.593 105.237,178.556 105.429,178.558 105.844 M73.021 107.352 C 73.021 108.492,73.052 108.934,73.090 108.334 C 73.127 107.734,73.127 106.801,73.089 106.261 C 73.051 105.720,73.020 106.211,73.021 107.352 M143.518 107.446 C 143.518 108.431,143.549 108.834,143.588 108.341 C 143.627 107.849,143.627 107.043,143.588 106.550 C 143.549 106.058,143.518 106.461,143.518 107.446 M200.632 107.352 C 200.632 108.285,200.664 108.690,200.703 108.253 C 200.743 107.815,200.743 107.052,200.704 106.556 C 200.665 106.061,200.633 106.418,200.632 107.352 M178.555 109.142 C 178.555 109.505,178.593 109.654,178.641 109.472 C 178.688 109.291,178.688 108.994,178.641 108.812 C 178.593 108.631,178.555 108.779,178.555 109.142 M191.953 109.991 C 191.954 110.613,191.989 110.844,192.031 110.506 C 192.073 110.167,192.072 109.658,192.029 109.375 C 191.986 109.091,191.952 109.369,191.953 109.991 M169.887 110.933 C 169.889 111.348,169.928 111.495,169.973 111.261 C 170.018 111.026,170.016 110.687,169.969 110.507 C 169.922 110.327,169.885 110.518,169.887 110.933 M209.503 113.666 C 209.503 115.584,209.531 116.369,209.566 115.410 C 209.600 114.451,209.600 112.882,209.566 111.923 C 209.531 110.964,209.503 111.748,209.503 113.666 M149.906 110.592 C 150.087 110.639,150.384 110.639,150.566 110.592 C 150.747 110.544,150.598 110.506,150.236 110.506 C 149.873 110.506,149.724 110.544,149.906 110.592 M154.241 110.969 C 154.423 111.016,154.720 111.016,154.901 110.969 C 155.082 110.921,154.934 110.883,154.571 110.883 C 154.208 110.883,154.060 110.921,154.241 110.969 M53.534 119.265 C 53.482 121.982,53.505 124.139,53.585 124.059 C 53.664 123.979,53.707 121.757,53.679 119.120 L 53.628 114.326 53.534 119.265 M211.828 117.012 C 212.995 117.045,214.903 117.045,216.070 117.012 C 217.236 116.979,216.282 116.951,213.949 116.951 C 211.616 116.951,210.662 116.979,211.828 117.012 M196.692 121.254 L 195.947 122.055 196.748 121.310 C 197.493 120.617,197.636 120.452,197.493 120.452 C 197.463 120.452,197.102 120.813,196.692 121.254 M138.737 121.866 C 139.089 122.229,139.419 122.526,139.471 122.526 C 139.523 122.526,139.277 122.229,138.926 121.866 C 138.574 121.503,138.244 121.206,138.192 121.206 C 138.140 121.206,138.385 121.503,138.737 121.866 M187.892 124.171 C 188.231 124.212,188.740 124.212,189.023 124.169 C 189.306 124.126,189.029 124.091,188.407 124.092 C 187.785 124.093,187.553 124.129,187.892 124.171 " stroke="none" fill="#f47474" fill-rule="evenodd"></path><path id="path6" d="M279.634 19.651 C 279.585 19.781,279.567 25.231,279.594 31.762 L 279.645 43.638 279.690 31.622 L 279.736 19.606 294.204 19.557 L 308.671 19.508 294.198 19.462 C 282.759 19.425,279.705 19.465,279.634 19.651 M281.528 38.640 C 281.449 38.769,285.877 38.831,294.994 38.831 C 303.687 38.831,308.577 38.765,308.577 38.648 C 308.577 38.390,281.688 38.383,281.528 38.640 M284.873 43.674 C 285.054 43.721,285.351 43.721,285.533 43.674 C 285.714 43.626,285.566 43.588,285.203 43.588 C 284.840 43.588,284.691 43.626,284.873 43.674 M265.881 45.375 C 265.674 45.425,265.427 45.539,265.332 45.629 C 265.237 45.719,265.491 45.702,265.897 45.591 C 266.991 45.292,266.978 45.111,265.881 45.375 M296.158 45.325 C 296.221 45.389,296.555 45.521,296.899 45.620 C 297.243 45.719,297.445 45.727,297.348 45.638 C 297.148 45.455,295.981 45.148,296.158 45.325 M262.488 46.404 C 261.555 46.717,260.716 47.046,260.624 47.133 C 260.532 47.220,261.253 47.036,262.226 46.724 C 263.200 46.412,264.077 46.078,264.175 45.981 C 264.408 45.753,264.458 45.741,262.488 46.404 M298.509 45.974 C 298.603 46.058,299.479 46.390,300.455 46.713 C 302.199 47.290,302.610 47.289,301.131 46.712 C 300.023 46.279,298.311 45.797,298.509 45.974 M251.272 51.771 C 250.910 52.028,250.528 52.329,250.424 52.439 C 250.206 52.673,251.156 52.107,251.816 51.611 C 252.497 51.099,252.027 51.237,251.272 51.771 M310.859 51.544 C 311.141 51.826,312.346 52.557,312.345 52.445 C 312.342 52.298,311.116 51.461,310.904 51.461 C 310.834 51.461,310.814 51.498,310.859 51.544 M315.834 55.274 C 316.456 55.850,316.994 56.295,317.029 56.262 C 317.105 56.192,315.669 54.875,315.100 54.493 C 314.882 54.347,315.212 54.698,315.834 55.274 M246.077 55.844 L 245.523 56.456 246.136 55.903 C 246.707 55.386,246.835 55.231,246.689 55.231 C 246.657 55.231,246.381 55.507,246.077 55.844 M317.813 57.022 C 318.165 57.385,318.495 57.681,318.547 57.681 C 318.599 57.681,318.354 57.385,318.002 57.022 C 317.650 56.659,317.320 56.362,317.268 56.362 C 317.216 56.362,317.462 56.659,317.813 57.022 M318.567 57.935 C 318.567 57.964,318.836 58.237,319.164 58.542 C 319.759 59.094,319.759 59.094,319.399 58.585 C 319.099 58.160,318.567 57.744,318.567 57.935 M320.002 59.425 C 320.148 59.676,321.531 61.418,321.835 61.734 C 322.198 62.113,321.697 61.346,320.879 60.273 C 320.130 59.290,319.656 58.832,320.002 59.425 M241.580 60.713 C 241.295 61.033,241.100 61.332,241.146 61.378 C 241.192 61.424,241.457 61.163,241.736 60.797 C 242.362 59.977,242.277 59.931,241.580 60.713 M324.985 67.877 C 325.101 68.093,325.233 68.232,325.279 68.186 C 325.411 68.054,325.143 67.484,324.950 67.484 C 324.853 67.484,324.869 67.660,324.985 67.877 M325.165 68.461 C 325.165 68.522,325.296 68.857,325.457 69.206 C 325.748 69.838,325.749 69.838,325.632 69.274 C 325.531 68.786,325.165 68.148,325.165 68.461 M325.976 71.065 C 326.037 71.324,326.145 71.984,326.216 72.530 C 326.287 73.077,326.407 73.562,326.481 73.608 C 326.647 73.710,326.168 70.870,325.992 70.709 C 325.923 70.646,325.916 70.806,325.976 71.065 M236.485 71.489 C 236.256 72.230,236.183 72.837,236.343 72.667 C 236.539 72.458,236.803 71.254,236.653 71.254 C 236.600 71.254,236.525 71.360,236.485 71.489 M236.000 75.156 C 235.950 75.695,235.979 76.067,236.063 75.983 C 236.147 75.898,236.188 75.457,236.154 75.002 L 236.091 74.175 236.000 75.156 M326.526 74.647 C 326.524 74.906,326.590 75.330,326.673 75.589 C 326.876 76.223,326.876 75.538,326.673 74.741 C 326.544 74.233,326.529 74.223,326.526 74.647 M225.636 78.511 C 225.636 79.956,225.709 80.867,225.825 80.867 C 225.940 80.867,226.013 79.956,226.013 78.511 C 226.013 77.066,225.940 76.155,225.825 76.155 C 225.709 76.155,225.636 77.066,225.636 78.511 M335.188 78.464 C 335.170 79.786,335.219 80.867,335.297 80.868 C 335.375 80.868,335.416 80.126,335.388 79.218 C 335.298 76.290,335.222 76.002,335.188 78.464 M254.241 83.836 C 268.678 83.863,292.302 83.863,306.739 83.836 C 321.176 83.809,309.364 83.788,280.490 83.788 C 251.616 83.788,239.804 83.809,254.241 83.836 M256.479 89.640 C 256.415 89.808,256.382 97.891,256.407 107.603 L 256.452 125.259 256.549 107.352 C 256.651 88.222,256.655 89.182,256.479 89.640 M283.223 89.538 C 283.534 89.617,284.086 89.682,284.449 89.682 L 285.108 89.682 284.543 89.538 C 284.232 89.459,283.680 89.394,283.318 89.394 L 282.658 89.394 283.223 89.538 M241.612 89.647 C 241.534 89.726,241.470 90.622,241.470 91.640 C 241.470 93.818,241.375 93.740,243.921 93.638 L 245.523 93.573 243.692 93.535 L 241.860 93.497 241.807 91.501 C 241.777 90.403,241.689 89.569,241.612 89.647 M254.477 91.486 L 254.477 93.497 252.639 93.535 L 250.801 93.573 252.403 93.638 C 254.888 93.738,254.765 93.845,254.727 91.603 C 254.709 90.552,254.645 89.643,254.585 89.584 C 254.526 89.524,254.477 90.380,254.477 91.486 M285.687 89.706 C 285.887 89.889,287.054 90.196,286.877 90.019 C 286.814 89.955,286.480 89.823,286.136 89.724 C 285.792 89.625,285.590 89.617,285.687 89.706 M266.164 95.470 L 266.164 101.214 263.761 101.273 L 261.357 101.332 263.855 101.373 L 266.352 101.414 266.352 95.570 C 266.352 92.356,266.310 89.727,266.258 89.727 C 266.206 89.727,266.164 92.311,266.164 95.470 M271.300 107.399 L 271.254 125.165 268.805 125.165 L 266.356 125.165 266.305 115.363 L 266.253 105.561 266.256 115.410 L 266.258 125.259 268.760 125.312 C 270.657 125.352,271.283 125.306,271.353 125.123 C 271.404 124.991,271.423 116.951,271.395 107.257 L 271.346 89.632 271.300 107.399 M274.739 107.446 L 274.741 125.259 277.191 125.267 L 279.642 125.276 277.239 125.215 L 274.837 125.154 274.787 107.393 L 274.738 89.632 274.739 107.446 M287.665 90.614 C 287.999 90.895,288.429 91.382,288.622 91.698 C 288.814 92.013,288.971 92.187,288.971 92.083 C 288.970 91.774,288.340 90.913,287.808 90.495 C 287.076 89.919,286.957 90.018,287.665 90.614 M298.822 93.636 C 299.522 93.673,300.667 93.673,301.367 93.636 C 302.066 93.600,301.494 93.571,300.094 93.571 C 298.695 93.571,298.122 93.600,298.822 93.636 M250.564 109.378 L 250.518 125.165 248.163 125.165 L 245.808 125.165 245.758 109.566 L 245.708 93.968 245.710 109.614 L 245.712 125.259 248.119 125.312 C 249.940 125.352,250.548 125.306,250.618 125.123 C 250.669 124.991,250.688 117.842,250.660 109.237 L 250.610 93.591 250.564 109.378 M281.451 93.848 C 282.568 93.922,283.397 94.072,283.619 94.240 C 283.965 94.504,283.966 94.500,283.641 94.146 C 283.356 93.835,283.026 93.776,281.473 93.754 L 279.642 93.728 281.451 93.848 M297.497 96.466 L 297.549 99.057 300.000 99.067 L 302.451 99.076 300.141 99.014 L 297.832 98.952 297.832 96.413 C 297.832 94.799,297.762 93.874,297.638 93.874 C 297.513 93.874,297.463 94.782,297.497 96.466 M284.227 98.427 C 284.279 101.824,284.244 102.452,283.980 102.887 L 283.672 103.393 284.060 102.948 C 284.461 102.488,284.675 95.276,284.304 94.692 C 284.228 94.572,284.193 96.253,284.227 98.427 M289.426 98.492 C 289.426 100.151,289.455 100.804,289.490 99.944 C 289.525 99.084,289.525 97.726,289.490 96.928 C 289.454 96.129,289.426 96.833,289.426 98.492 M297.542 103.157 C 297.492 103.287,297.473 107.337,297.500 112.158 L 297.549 120.924 300.094 120.933 L 302.639 120.942 300.236 120.880 L 297.832 120.818 297.810 112.011 C 297.798 107.168,297.798 103.141,297.810 103.063 C 297.847 102.830,297.639 102.903,297.542 103.157 M280.349 103.625 C 280.738 103.665,281.374 103.665,281.762 103.625 C 282.151 103.584,281.833 103.551,281.056 103.551 C 280.278 103.551,279.960 103.584,280.349 103.625 M288.407 104.053 C 288.186 104.364,288.047 104.618,288.099 104.618 C 288.151 104.618,288.374 104.364,288.596 104.053 C 288.817 103.742,288.956 103.487,288.904 103.487 C 288.852 103.487,288.629 103.742,288.407 104.053 M286.242 105.754 C 286.289 105.830,286.539 105.933,286.796 105.982 C 287.054 106.032,287.226 106.009,287.179 105.933 C 287.132 105.857,286.882 105.754,286.625 105.705 C 286.367 105.656,286.195 105.678,286.242 105.754 M287.465 105.978 C 287.465 106.039,287.740 106.375,288.077 106.725 C 288.414 107.074,288.797 107.528,288.928 107.733 C 289.059 107.938,289.046 107.851,288.898 107.540 C 288.650 107.018,287.465 105.726,287.465 105.978 M283.883 108.069 C 284.121 108.371,284.181 109.753,284.265 116.843 L 284.364 125.259 284.406 116.929 L 284.449 108.598 284.025 108.154 C 283.791 107.910,283.728 107.871,283.883 108.069 M289.395 117.666 L 289.350 125.154 286.946 125.213 L 284.543 125.272 286.952 125.312 C 288.739 125.343,289.385 125.292,289.452 125.117 C 289.502 124.988,289.519 121.573,289.491 117.530 L 289.439 110.179 289.395 117.666 M257.925 125.305 C 258.629 125.341,259.732 125.341,260.375 125.304 C 261.019 125.268,260.443 125.238,259.095 125.238 C 257.747 125.239,257.221 125.269,257.925 125.305 M295.146 125.306 C 296.520 125.338,298.768 125.338,300.141 125.306 C 301.515 125.274,300.391 125.247,297.644 125.247 C 294.896 125.247,293.772 125.274,295.146 125.306 M281.150 131.008 L 228.746 131.104 281.197 131.150 C 316.069 131.181,333.648 131.134,333.648 131.008 C 333.648 130.905,333.626 130.841,333.600 130.867 C 333.574 130.892,309.972 130.956,281.150 131.008 M335.197 136.296 L 335.250 138.643 337.229 138.657 L 339.208 138.670 337.310 138.562 L 335.412 138.454 335.363 136.287 C 335.335 135.095,335.275 134.081,335.228 134.034 C 335.182 133.988,335.167 135.005,335.197 136.296 M223.657 138.549 L 221.583 138.663 223.599 138.700 C 224.781 138.722,225.662 138.659,225.730 138.549 C 225.795 138.445,225.821 138.377,225.789 138.397 C 225.757 138.418,224.797 138.486,223.657 138.549 M219.310 143.318 C 219.258 143.453,219.242 144.662,219.275 146.004 L 219.334 148.445 219.375 145.862 L 219.416 143.279 220.594 143.212 L 221.772 143.145 220.588 143.109 C 219.761 143.084,219.375 143.147,219.310 143.318 M340.381 143.207 L 341.554 143.279 341.615 145.815 L 341.675 148.351 341.667 145.759 L 341.659 143.167 340.434 143.151 L 339.208 143.135 340.381 143.207 " stroke="none" fill="#c9c9c9" fill-rule="evenodd"></path><path id="path7" d="M241.942 89.538 C 242.015 89.658,244.296 89.727,248.162 89.727 C 252.028 89.727,254.309 89.658,254.383 89.538 C 254.459 89.414,252.339 89.350,248.162 89.350 C 243.985 89.350,241.865 89.414,241.942 89.538 M256.839 89.548 C 256.915 89.671,257.791 89.734,259.159 89.713 L 261.357 89.681 261.456 95.500 L 261.554 101.320 261.597 95.561 C 261.629 91.284,261.582 89.744,261.414 89.576 C 261.118 89.280,256.657 89.253,256.839 89.548 M266.459 89.518 C 266.401 89.613,267.376 89.699,268.694 89.715 C 270.146 89.732,271.079 89.669,271.154 89.546 C 271.236 89.414,270.508 89.350,268.920 89.350 C 267.624 89.350,266.516 89.425,266.459 89.518 M274.924 89.529 C 275.004 89.659,276.547 89.719,279.417 89.704 C 281.822 89.692,283.534 89.622,283.223 89.548 C 282.264 89.322,274.785 89.304,274.924 89.529 M292.837 89.538 C 292.991 89.787,301.971 89.787,302.356 89.538 C 302.543 89.418,300.951 89.354,297.680 89.353 C 294.421 89.351,292.760 89.414,292.837 89.538 M256.641 107.446 C 256.641 117.243,256.664 121.251,256.692 116.352 C 256.720 111.454,256.720 103.438,256.692 98.539 C 256.664 93.640,256.641 97.648,256.641 107.446 M292.645 107.540 C 292.645 117.286,292.668 121.245,292.696 116.338 C 292.724 111.432,292.724 103.458,292.696 98.619 C 292.668 93.780,292.645 97.795,292.645 107.540 M47.738 90.999 C 49.060 91.031,51.223 91.031,52.545 90.999 C 53.867 90.966,52.785 90.940,50.141 90.940 C 47.498 90.940,46.416 90.966,47.738 90.999 M90.245 90.999 C 91.619 91.031,93.867 91.031,95.240 90.999 C 96.614 90.966,95.490 90.940,92.743 90.940 C 89.995 90.940,88.871 90.966,90.245 90.999 M111.169 90.999 C 113.787 91.028,118.070 91.028,120.688 90.999 C 123.306 90.969,121.164 90.945,115.928 90.945 C 110.693 90.945,108.551 90.969,111.169 90.999 M179.167 107.446 C 179.167 116.621,179.190 120.375,179.218 115.787 C 179.246 111.199,179.246 103.692,179.218 99.105 C 179.190 94.517,179.167 98.270,179.167 107.446 M183.261 90.998 C 184.163 91.032,185.690 91.033,186.654 90.998 C 187.618 90.964,186.880 90.936,185.014 90.936 C 183.148 90.935,182.359 90.963,183.261 90.998 M160.038 93.214 C 159.580 93.680,159.248 94.062,159.299 94.062 C 159.351 94.062,159.768 93.680,160.226 93.214 C 160.684 92.747,161.016 92.366,160.964 92.366 C 160.913 92.366,160.496 92.747,160.038 93.214 M68.508 93.355 L 67.955 93.968 68.567 93.414 C 68.904 93.110,69.180 92.834,69.180 92.802 C 69.180 92.656,69.024 92.784,68.508 93.355 M284.524 98.869 C 284.524 100.424,284.553 101.035,284.589 100.227 C 284.624 99.419,284.624 98.146,284.588 97.399 C 284.553 96.653,284.524 97.314,284.524 98.869 M126.008 111.122 C 126.008 118.275,126.032 121.174,126.060 117.564 C 126.089 113.954,126.089 108.101,126.060 104.557 C 126.032 101.014,126.008 103.968,126.008 111.122 M209.323 100.801 L 209.331 103.393 212.300 103.400 L 215.269 103.408 212.352 103.349 L 209.436 103.289 209.375 100.749 L 209.314 98.209 209.323 100.801 M99.405 102.262 C 99.406 103.091,99.439 103.407,99.479 102.964 C 99.518 102.521,99.518 101.842,99.477 101.456 C 99.437 101.070,99.404 101.433,99.405 102.262 M56.989 102.639 C 56.990 103.365,57.024 103.639,57.065 103.247 C 57.106 102.856,57.105 102.263,57.063 101.928 C 57.022 101.593,56.988 101.913,56.989 102.639 M262.920 101.554 C 263.572 101.590,264.590 101.590,265.182 101.553 C 265.774 101.516,265.240 101.485,263.996 101.486 C 262.752 101.486,262.268 101.517,262.920 101.554 M135.199 103.864 C 135.199 104.227,135.238 104.376,135.285 104.194 C 135.333 104.013,135.333 103.716,135.285 103.534 C 135.238 103.353,135.199 103.501,135.199 103.864 M170.076 103.959 C 170.078 104.373,170.117 104.521,170.162 104.286 C 170.207 104.052,170.205 103.712,170.158 103.532 C 170.111 103.352,170.074 103.544,170.076 103.959 M215.345 106.786 C 215.345 108.445,215.374 109.098,215.409 108.238 C 215.444 107.378,215.444 106.021,215.409 105.222 C 215.373 104.423,215.345 105.127,215.345 106.786 M192.127 104.618 C 192.127 104.981,192.165 105.130,192.213 104.948 C 192.260 104.767,192.260 104.470,192.213 104.288 C 192.165 104.107,192.127 104.255,192.127 104.618 M164.262 107.352 C 164.262 109.114,164.290 109.860,164.325 109.010 C 164.360 108.160,164.360 106.718,164.325 105.806 C 164.291 104.893,164.262 105.589,164.262 107.352 M72.834 107.352 C 72.834 108.596,72.864 109.080,72.901 108.428 C 72.938 107.776,72.938 106.758,72.901 106.166 C 72.863 105.574,72.833 106.107,72.834 107.352 M261.538 105.608 C 261.488 105.738,261.471 110.212,261.498 115.551 L 261.549 125.259 261.595 115.416 L 261.640 105.572 263.949 105.513 L 266.258 105.454 263.943 105.413 C 262.234 105.383,261.605 105.434,261.538 105.608 M143.331 107.446 C 143.331 108.534,143.362 108.980,143.400 108.435 C 143.438 107.891,143.438 107.000,143.400 106.456 C 143.362 105.912,143.331 106.357,143.331 107.446 M104.797 110.038 L 104.147 110.745 104.854 110.095 C 105.512 109.490,105.647 109.331,105.504 109.331 C 105.472 109.331,105.154 109.649,104.797 110.038 M284.535 117.436 C 284.535 121.739,284.560 123.499,284.590 121.348 C 284.620 119.197,284.620 115.676,284.590 113.525 C 284.560 111.374,284.535 113.134,284.535 117.436 M211.083 110.037 C 211.944 110.072,213.301 110.072,214.099 110.036 C 214.898 110.001,214.194 109.972,212.535 109.973 C 210.877 109.973,210.223 110.002,211.083 110.037 M209.324 113.713 L 209.331 117.154 213.666 117.159 L 218.002 117.164 213.718 117.108 L 209.434 117.052 209.376 113.663 L 209.318 110.273 209.324 113.713 M170.072 111.027 C 170.072 111.390,170.111 111.539,170.158 111.357 C 170.206 111.176,170.206 110.879,170.158 110.697 C 170.111 110.516,170.072 110.664,170.072 111.027 M297.621 121.071 C 297.702 121.152,298.864 121.194,300.204 121.164 L 302.639 121.111 300.056 121.017 C 298.635 120.966,297.539 120.990,297.621 121.071 M254.886 130.961 C 269.262 130.988,292.844 130.988,307.289 130.961 C 321.734 130.935,309.972 130.913,281.150 130.913 C 252.328 130.913,240.509 130.935,254.886 130.961 " stroke="none" fill="#eccbd0" fill-rule="evenodd"></path><path id="path8" d="M87.743 107.446 C 87.743 116.621,87.766 120.375,87.794 115.787 C 87.823 111.199,87.823 103.692,87.794 99.105 C 87.766 94.517,87.743 98.270,87.743 107.446 M134.303 107.446 C 134.303 116.621,134.326 120.375,134.354 115.787 C 134.382 111.199,134.382 103.692,134.354 99.105 C 134.326 94.517,134.303 98.270,134.303 107.446 M45.331 107.540 C 45.331 116.664,45.354 120.423,45.382 115.895 C 45.410 111.367,45.410 103.903,45.382 99.307 C 45.354 94.712,45.331 98.417,45.331 107.540 M125.621 94.533 C 125.621 96.503,125.649 97.284,125.683 96.267 C 125.717 95.251,125.716 93.639,125.682 92.686 C 125.648 91.732,125.620 92.564,125.621 94.533 M125.998 94.722 C 125.998 96.692,126.026 97.472,126.060 96.456 C 126.094 95.440,126.093 93.828,126.059 92.874 C 126.025 91.921,125.997 92.752,125.998 94.722 M187.458 107.540 C 187.458 112.724,187.482 114.817,187.512 112.192 C 187.541 109.567,187.541 105.326,187.512 102.767 C 187.482 100.209,187.458 102.356,187.458 107.540 M120.165 111.216 C 120.165 118.318,120.188 121.223,120.217 117.672 C 120.245 114.121,120.245 108.311,120.217 104.760 C 120.188 101.209,120.165 104.114,120.165 111.216 M170.072 105.184 C 170.072 105.547,170.111 105.695,170.158 105.514 C 170.206 105.332,170.206 105.035,170.158 104.854 C 170.111 104.672,170.072 104.821,170.072 105.184 M192.156 107.446 C 192.156 108.742,192.186 109.272,192.223 108.624 C 192.259 107.976,192.259 106.916,192.223 106.268 C 192.186 105.620,192.156 106.150,192.156 107.446 M155.945 106.409 C 155.946 106.927,155.983 107.117,156.026 106.831 C 156.069 106.544,156.068 106.120,156.023 105.888 C 155.979 105.656,155.943 105.891,155.945 106.409 M135.025 107.540 C 135.026 108.162,135.062 108.394,135.104 108.055 C 135.146 107.716,135.145 107.207,135.102 106.924 C 135.059 106.641,135.024 106.918,135.025 107.540 M155.945 108.671 C 155.946 109.189,155.983 109.379,156.026 109.093 C 156.069 108.806,156.068 108.382,156.023 108.150 C 155.979 107.918,155.943 108.153,155.945 108.671 M170.076 109.802 C 170.078 110.217,170.117 110.364,170.162 110.130 C 170.207 109.895,170.205 109.556,170.158 109.376 C 170.111 109.196,170.074 109.387,170.076 109.802 M218.174 120.641 C 218.174 122.559,218.202 123.344,218.237 122.385 C 218.271 121.426,218.271 119.856,218.237 118.897 C 218.202 117.938,218.174 118.723,218.174 120.641 M138.926 121.866 C 139.277 122.229,139.607 122.526,139.659 122.526 C 139.711 122.526,139.466 122.229,139.114 121.866 C 138.762 121.503,138.432 121.206,138.380 121.206 C 138.328 121.206,138.574 121.503,138.926 121.866 " stroke="none" fill="#fcb4bc" fill-rule="evenodd"></path></g></svg>